HIERARCHY
ROOT Hips
{
	OFFSET -0.001795 -0.223333 0.028219
	CHANNELS 6 Xposition Yposition Zposition Zrotation Yrotation Xrotation 
	JOINT LeftUpLeg
	{
		OFFSET 0.069520 -0.091406 -0.006815
		CHANNELS 3 Zrotation Yrotation Xrotation
		JOINT LeftLeg
		{
			OFFSET 0.034277 -0.375199 -0.004496
			CHANNELS 3 Zrotation Yrotation Xrotation
			JOINT LeftFoot
			{
				OFFSET -0.013596 -0.397961 -0.043693
				CHANNELS 3 Zrotation Yrotation Xrotation
				JOINT LeftToe
				{
					OFFSET 0.026358 -0.055791 0.119288
					CHANNELS 3 Zrotation Yrotation Xrotation
					End Site
					{
						OFFSET 0.000000 0.000000 0.000000
					}
				}
			}
		}
	}
	JOINT RightUpLeg
	{
		OFFSET -0.067670 -0.090522 -0.004320
		CHANNELS 3 Zrotation Yrotation Xrotation
		JOINT RightLeg
		{
			OFFSET -0.038290 -0.382569 -0.008850
			CHANNELS 3 Zrotation Yrotation Xrotation
			JOINT RightFoot
			{
				OFFSET 0.015774 -0.398415 -0.042312
				CHANNELS 3 Zrotation Yrotation Xrotation
				JOINT RightToe
				{
					OFFSET -0.025372 -0.048144 0.123348
					CHANNELS 3 Zrotation Yrotation Xrotation
					End Site
					{
						OFFSET 0.000000 0.000000 0.000000
					}
				}
			}
		}
	}
	JOINT Spine
	{
		OFFSET -0.002533 0.108963 -0.026696
		CHANNELS 3 Zrotation Yrotation Xrotation
		JOINT Spine1
		{
			OFFSET 0.005487 0.135180 0.001092
			CHANNELS 3 Zrotation Yrotation Xrotation
			JOINT Spine2
			{
				OFFSET 0.001457 0.052922 0.025425
				CHANNELS 3 Zrotation Yrotation Xrotation
				JOINT Neck
				{
					OFFSET -0.002778 0.213870 -0.042857
					CHANNELS 3 Zrotation Yrotation Xrotation
					JOINT Head
					{
						OFFSET 0.005152 0.064970 0.051349
						CHANNELS 3 Zrotation Yrotation Xrotation
						End Site
						{
							OFFSET 0.000000 0.000000 0.000000
						}
					}
				}
				JOINT LeftShoulder
				{
					OFFSET 0.078845 0.121749 -0.034090
					CHANNELS 3 Zrotation Yrotation Xrotation
					JOINT LeftArm
					{
						OFFSET 0.090977 0.030469 -0.008868
						CHANNELS 3 Zrotation Yrotation Xrotation
						JOINT LeftForeArm
						{
							OFFSET 0.259612 -0.012772 -0.027456
							CHANNELS 3 Zrotation Yrotation Xrotation
							JOINT LeftHand
							{
								OFFSET 0.249234 0.008986 -0.001171
								CHANNELS 3 Zrotation Yrotation Xrotation
								End Site
								{
									OFFSET 0.000000 0.000000 0.000000
								}
							}
						}
					}
				}
				JOINT RightShoulder
				{
					OFFSET -0.081759 0.118833 -0.038615
					CHANNELS 3 Zrotation Yrotation Xrotation
					JOINT RightArm
					{
						OFFSET -0.096012 0.032551 -0.009143
						CHANNELS 3 Zrotation Yrotation Xrotation
						JOINT RightForeArm
						{
							OFFSET -0.253742 -0.013329 -0.021401
							CHANNELS 3 Zrotation Yrotation Xrotation
							JOINT RightHand
							{
								OFFSET -0.255298 0.007772 -0.005559
								CHANNELS 3 Zrotation Yrotation Xrotation
								End Site
								{
									OFFSET 0.000000 0.000000 0.000000
								}
							}
						}
					}
				}
			}
		}
	}
}
MOTION
Frames: 7
Frame Time: 0.050000
0.000000 0.964687 0.000000 2.261778 -3.753467 3.461323 -1.109104 -0.926308 -9.382093 -3.030836 0.345085 1.988055 1.186298 6.565817 13.858917 0.000000 0.000000 0.000000 -7.049380 0.618188 -8.545296 5.828157 -0.606964 6.651715 -8.134846 -20.237565 11.373530 0.000000 0.000000 0.000000 8.487325 -2.716034 23.917505 -4.776253 1.772308 -18.236589 4.887931 12.612932 28.144685 15.335768 -9.174925 -14.198163 0.000000 0.000000 0.000000 -17.991413 -12.606021 3.085746 -53.175567 -9.482358 -4.230948 -15.229764 -46.635754 7.952613 0.000000 0.000000 0.000000 22.087679 9.763029 7.642750 33.769473 30.339711 1.739869 -15.941498 20.342208 -1.373784 0.000000 0.000000 0.000000 
0.002648 0.965100 -0.000135 2.252923 -2.957895 3.825275 -1.318128 -0.901742 -8.995160 -3.051907 0.346096 0.881883 0.215239 5.127264 13.841917 0.000000 0.000000 0.000000 -7.506805 0.613441 -9.047193 6.433172 -0.726815 7.401744 -9.145358 -21.952056 12.099930 0.000000 0.000000 0.000000 9.588617 -2.996577 23.602228 -4.414379 1.674685 -18.460236 4.916398 13.954328 28.495278 17.496554 -11.054044 -13.309259 0.000000 0.000000 0.000000 -17.732491 -13.779382 3.246125 -52.913618 -9.097668 -4.350031 -15.967858 -46.270970 7.925738 0.000000 0.000000 0.000000 21.702973 9.452206 7.882636 32.115554 29.045919 1.070425 -14.956546 22.458890 -1.405442 0.000000 0.000000 0.000000 
0.005153 0.965875 -0.000068 2.442833 -2.846407 3.445382 -1.322394 -0.955151 -9.505446 -3.387901 0.383662 3.109454 0.748997 5.763249 12.963255 0.000000 0.000000 0.000000 -7.743938 0.553731 -7.840324 6.470653 -0.720869 6.244370 -9.525381 -22.554275 13.059047 0.000000 0.000000 0.000000 9.746171 -3.014032 23.518086 -4.220067 1.633278 -17.685217 4.710811 14.851163 27.242702 18.703625 -11.514948 -14.284522 0.000000 0.000000 0.000000 -17.008758 -13.658959 2.959058 -54.130455 -9.108670 -4.360630 -17.112400 -45.007936 7.993422 0.000000 0.000000 0.000000 22.140884 9.132738 8.004354 30.485964 28.722736 0.786188 -13.743153 22.303225 -1.240415 0.000000 0.000000 0.000000 
0.007492 0.966143 0.000414 2.460922 -3.058032 2.623648 -1.714273 -0.902300 -8.704315 -3.407043 0.389460 3.589919 0.373668 4.830440 11.883712 0.000000 0.000000 0.000000 -8.085564 0.511594 -7.108854 6.771965 -0.755895 5.834888 -9.552142 -22.587057 13.614296 0.000000 0.000000 0.000000 10.232643 -3.178350 24.329995 -4.497672 1.718120 -17.747139 4.917912 15.347427 27.544464 19.650177 -11.789878 -15.538426 0.000000 0.000000 0.000000 -17.336936 -14.435823 3.215913 -54.192566 -9.168725 -4.308949 -15.875711 -46.028876 7.608710 0.000000 0.000000 0.000000 21.457933 8.705077 7.675736 30.838297 28.046657 0.715110 -14.171283 23.635566 -1.373830 0.000000 0.000000 0.000000 
0.009693 0.966824 0.001462 2.385687 -2.957197 2.402436 -1.690307 -0.920782 -8.892215 -3.368042 0.382562 4.448718 0.363073 4.757086 11.640704 0.000000 0.000000 0.000000 -7.997477 0.475779 -6.106779 6.277779 -0.675145 4.874813 -9.141294 -21.890609 13.890581 0.000000 0.000000 0.000000 10.230133 -3.187222 24.405570 -4.210406 1.634506 -17.827764 5.007620 14.708939 27.130904 19.504582 -11.457198 -16.252478 0.000000 0.000000 0.000000 -17.182848 -13.827334 3.066562 -54.586661 -9.081049 -4.392228 -15.864705 -46.137704 7.707939 0.000000 0.000000 0.000000 21.412907 8.320180 7.260625 31.292927 27.412316 0.682610 -13.892818 24.449894 -1.379094 0.000000 0.000000 0.000000 
0.012213 0.967368 0.002946 2.303915 -3.137457 2.481777 -1.613324 -0.914685 -8.885288 -3.555256 0.414387 4.738645 0.157452 4.373478 11.568016 0.000000 0.000000 0.000000 -7.924047 0.474176 -5.845324 5.655598 -0.583857 4.636689 -8.327352 -20.543987 13.411983 0.000000 0.000000 0.000000 10.264274 -3.094819 23.639226 -4.225887 1.632194 -18.004741 4.551837 14.086705 27.112977 19.156241 -11.377187 -15.986296 0.000000 0.000000 0.000000 -16.902676 -14.051691 3.409311 -54.683095 -9.917883 -4.097232 -14.259096 -46.062219 7.148049 0.000000 0.000000 0.000000 21.474754 7.865985 6.800688 33.000646 26.177928 0.597748 -14.013870 26.054679 -1.469196 0.000000 0.000000 0.000000 
0.015418 0.967522 0.005015 2.115078 -3.651427 2.508675 -1.400622 -0.882630 -8.710865 -3.484160 0.409332 4.540953 0.319642 4.581610 11.560932 0.000000 0.000000 0.000000 -7.548889 0.478735 -5.567215 4.915070 -0.475009 4.228056 -7.632545 -19.417162 13.499196 0.000000 0.000000 0.000000 9.873265 -2.878764 22.768159 -4.217789 1.611095 -18.610568 4.357768 12.959064 27.309688 18.798614 -11.139823 -16.415395 0.000000 0.000000 0.000000 -17.389011 -14.125846 3.804080 -53.724194 -10.632835 -3.748678 -12.625145 -45.730241 6.628334 0.000000 0.000000 0.000000 22.026742 7.227467 6.145310 35.306258 24.253474 0.312444 -12.757535 28.738156 -1.329183 0.000000 0.000000 0.000000 
